<mxfile host="app.diagrams.net" modified="2024-03-13T11:32:28.748Z" agent="Mozilla/5.0 (Windows NT 10.0; Win64; x64) AppleWebKit/537.36 (KHTML, like Gecko) Chrome/122.0.0.0 Safari/537.36 Edg/122.0.0.0" version="24.0.5" etag="HVg5_txodGZjNor19R2F" type="github">
  <diagram name="第 1 页" id="n94NRZTKu71lL3t-uwo4">
    <mxGraphModel>
      <root>
        <mxCell id="0" />
        <mxCell id="1" parent="0" />
      </root>
    </mxGraphModel>
  </diagram>
</mxfile>
